<svg id="Calque_1" data-name="Calque 1" xmlns="http://www.w3.org/2000/svg" viewBox="0 0 512 327.44"><defs><style>.cls-1{fill:#00b337;}.cls-2{fill:#00861c;}.cls-3{fill:#31db61;}</style></defs><title>crown</title><path class="cls-1" d="M419.25,370H92.75a15.08,15.08,0,0,1-12.46-6.59C37.21,300.22,33.91,178.7,33.66,160.66c0-.71,0-1.42,0-2.13a15.07,15.07,0,0,1,15-15.08h0a15.08,15.08,0,0,1,15.08,15c0,.1,0,1,0,2.57a79.9,79.9,0,0,0,159.76-2.51,15.08,15.08,0,0,1,15.08-15.08h34.64a15.08,15.08,0,0,1,15.07,15.08,79.91,79.91,0,0,0,159.78,2.39c0-1.51,0-2.35,0-2.45a15.08,15.08,0,0,1,15.08-15h0a15.08,15.08,0,0,1,15.05,15.08c0,.71,0,1.42,0,2.13-.25,18-3.56,139.56-46.63,202.73A15.1,15.1,0,0,1,419.25,370Z" transform="translate(0 -92)"/><path class="cls-2" d="M463.31,143.45h0a15.08,15.08,0,0,0-15.08,15c0,.1,0,.94,0,2.45a79.9,79.9,0,0,1-159.77-2.39,15.08,15.08,0,0,0-15.08-15.08H256V370H419.25a15.07,15.07,0,0,0,12.46-6.58c43.08-63.17,46.38-184.69,46.63-202.73,0-.71,0-1.42,0-2.13A15.08,15.08,0,0,0,463.31,143.45Z" transform="translate(0 -92)"/><path class="cls-3" d="M256,92a48.72,48.72,0,1,0,48.72,48.72A48.78,48.78,0,0,0,256,92Z" transform="translate(0 -92)"/><path class="cls-1" d="M256,92v97.44A48.72,48.72,0,1,0,256,92Z" transform="translate(0 -92)"/><path class="cls-3" d="M48.72,129.6a48.72,48.72,0,1,0,48.71,48.72A48.77,48.77,0,0,0,48.72,129.6Z" transform="translate(0 -92)"/><path class="cls-1" d="M463.28,129.6A48.72,48.72,0,1,0,512,178.32,48.77,48.77,0,0,0,463.28,129.6Z" transform="translate(0 -92)"/><path class="cls-3" d="M419.25,419.44H92.75a15.08,15.08,0,0,1-15.08-15.08v-45H434.33v45A15.08,15.08,0,0,1,419.25,419.44Z" transform="translate(0 -92)"/><path class="cls-1" d="M256,419.44H419.25a15.08,15.08,0,0,0,15.08-15.08v-45H256Z" transform="translate(0 -92)"/></svg>