<svg id="Layer_1" data-name="Layer 1" xmlns="http://www.w3.org/2000/svg" xmlns:xlink="http://www.w3.org/1999/xlink" viewBox="0 0 632.11 501.55"><defs><style>.cls-1{fill:#ff7058;}.cls-2{fill:#ef9354;}.cls-3{fill:#f1543f;}.cls-4{fill:#c05100;}.cls-5{fill:#fff;}.cls-6{fill:#d16a24;}</style></defs><title>cup_bronze2</title><polygon class="cls-1" points="427.31 412.74 335.36 412.74 351.03 379.3 364.62 347.95 398.05 347.95 411.64 379.3 427.31 412.74"/><path class="cls-2" d="M355.27,412.73h-209a21,21,0,0,0-20.9,20.9v67.92H375.12V433.63C376.16,422.14,366.76,412.73,355.27,412.73Z" transform="translate(130.56)"/><path class="cls-3" d="M281.08,379.3A265.88,265.88,0,0,1,256,390.79l-5.22,1-5.23-2.09a268.56,268.56,0,0,1-25.08-11.5l13.59-31.34h32.39Z" transform="translate(130.56)"/><path class="cls-4" d="M0,57.47v42.84c0,104.49,64.78,194.35,155.69,232,29.26,12.54,61.65,18.81,95.09,18.81s65.83-6.27,95.08-18.81c90.91-37.62,155.69-127.48,155.69-232V57.47Zm459.76,42.84A206.7,206.7,0,0,1,411.69,233c-38.66,46-96.13,76.28-160.91,76.28S128.52,280,89.86,233C60.6,197.48,41.8,150.46,41.8,100.31v-1H458.71v1Z" transform="translate(130.56)"/><path class="cls-4" d="M413.78,0h-326A12.71,12.71,0,0,0,75.23,12.54c0,7.31,5.23,13.58,12.54,13.58h326a12.71,12.71,0,0,0,12.54-12.54C426.32,6.27,421.09,0,413.78,0Z" transform="translate(130.56)"/><path class="cls-2" d="M413.78,26.12V139c0,104.49-64.78,199.58-163,237.19-98.22-38.66-163-132.7-163-238.23V26.12Z" transform="translate(130.56)"/><polygon class="cls-5" points="381.34 73.14 403.28 140.02 473.29 140.02 416.86 181.81 437.76 248.69 381.34 206.89 324.91 248.69 345.81 181.81 289.38 140.02 359.39 140.02 381.34 73.14"/><rect class="cls-6" x="218.33" y="26.12" width="324.96" height="15.67"/><image width="94" height="132" transform="translate(17 230.74) scale(0.88)" xlink:href="cup_silver.png"/><image width="94" height="132" transform="translate(0 30.87) scale(1.06)" xlink:href="cup_bronze.png"/></svg>