<?xml version="1.0" encoding="utf-8"?>
<!-- Generator: Adobe Illustrator 23.0.6, SVG Export Plug-In . SVG Version: 6.00 Build 0)  -->
<svg version="1.1" id="Capa_1" xmlns="http://www.w3.org/2000/svg" xmlns:xlink="http://www.w3.org/1999/xlink" x="0px" y="0px"
	 viewBox="0 0 551.4 551.4" style="enable-background:new 0 0 551.4 551.4;" xml:space="preserve">
<style type="text/css">
	.st0{fill:#FFFFFF;}
</style>
<g>
	<path class="st0" d="M413.7,0c0,0-45.4,44-94.4,61.8C-44.1,193.2,109.2,449.3,114.2,450.1c0,0,20.4-35.5,47.9-55.7
		C336.7,266,372.2,118.2,372.2,118.2S333,296.1,177.6,406.7c-34.3,24.4-57.6,84.6-67.4,144.7c0,0,24.3-9.8,34.8-12.5
		c4.1-26.6,12.6-52.1,27-74.9c217.2,25.9,288.3-149.1,297.6-210.1C491.6,109.8,413.7,0,413.7,0z"/>
</g>
</svg>
