<svg width="61" height="61" viewBox="0 0 61 61" fill="none" xmlns="http://www.w3.org/2000/svg">
<path d="M45.0208 24.7953C45.0208 16.7034 38.4023 10.1581 30.2832 10.2761C22.445 10.3906 16.0639 16.799 15.9801 24.6371C15.9447 27.9923 17.0462 31.088 18.9245 33.5625C21.5739 37.056 23.2055 41.1987 23.542 45.541C23.5857 46.0959 23.6069 46.6543 23.6069 47.2151V50.6495H37.3941V47.417C37.3941 46.7901 37.4189 46.1644 37.4696 45.541C37.8155 41.2389 39.3516 37.0925 42.0008 33.6604C43.8944 31.2084 45.0208 28.1329 45.0208 24.7953Z" fill="#FEC007"/>
<path d="M37.4695 45.541H23.5419C23.5856 46.0959 23.6068 46.6543 23.6068 47.2151V50.6495H37.394V47.417C37.394 46.7901 37.4188 46.1644 37.4695 45.541Z" fill="#FE9700"/>
<path d="M45.0207 24.7953C45.0207 18.6207 41.1672 13.3469 35.7329 11.2466C40.2145 13.7176 43.2498 18.4885 43.2498 23.969C43.2498 27.3066 42.1235 30.3821 40.2298 32.8342C37.1968 36.7632 35.623 41.6262 35.623 46.5907V50.6495H37.3939V47.417C37.3939 42.4525 38.9677 37.5896 42.0008 33.6606C43.8944 31.2084 45.0207 28.1329 45.0207 24.7953Z" fill="#FE9700"/>
<path d="M27.1129 32.5916C26.6121 32.5916 26.2062 32.9975 26.2062 33.4984V50.6495C26.2062 51.1504 26.6121 51.5564 27.1129 51.5564C27.6138 51.5564 28.0198 51.1505 28.0198 50.6495V33.4984C28.0197 32.9977 27.6138 32.5916 27.1129 32.5916Z" fill="#FE9700"/>
<path d="M33.8421 32.5916C33.3413 32.5916 32.9353 32.9975 32.9353 33.4984V50.6495C32.9353 51.1504 33.3413 51.5564 33.8421 51.5564C34.343 51.5564 34.749 51.1505 34.749 50.6495V33.4984C34.7489 32.9977 34.343 32.5916 33.8421 32.5916Z" fill="#FE9700"/>
<path d="M33.8421 35.9693C33.6102 35.9693 33.378 36.0578 33.2008 36.2348C32.3455 37.0905 31.1816 36.2546 31.0516 36.1564C30.6908 35.8834 30.1789 35.9147 29.8587 36.235C29.0473 37.0464 27.673 36.1589 27.6148 36.1209C27.1979 35.847 26.6356 35.96 26.3595 36.3757C26.0834 36.7913 26.193 37.3506 26.6071 37.6289C27.4077 38.1667 29.1344 38.8216 30.5543 37.9767C31.5785 38.5022 33.1833 38.8173 34.4832 37.5175C34.8373 37.1633 34.8373 36.5892 34.4832 36.235C34.3063 36.0578 34.0741 35.9693 33.8421 35.9693Z" fill="#FE9700"/>
<path d="M37.728 47.3119H23.2278C22.5347 47.3119 22.0283 47.966 22.2019 48.6365L22.5619 50.0273L24.6988 58.2844L25.1959 60.2053C25.3163 60.673 25.7378 61 26.2207 61H34.7341C35.217 61 35.6385 60.673 35.7601 60.2055L36.2571 58.2845L38.3928 50.0274L38.7529 48.6367C38.9265 47.966 38.4199 47.3119 37.728 47.3119Z" fill="#76C2E0"/>
<path d="M38.3927 50.0274H22.5619L24.6988 58.2845H36.257L38.3927 50.0274Z" fill="#2796AF"/>
<path d="M38.5221 51.7983H22.433C21.7957 51.7983 21.279 52.3149 21.279 52.9523V55.3598C21.279 55.997 21.7956 56.5138 22.433 56.5138H38.5222C39.1595 56.5138 39.6762 55.9972 39.6762 55.3598V52.9523C39.6761 52.315 39.1595 51.7983 38.5221 51.7983Z" fill="#CAEDFF"/>
<path d="M27.1134 14.7574C27.0308 14.7574 26.9469 14.7687 26.8634 14.7926C21.0227 16.4646 19.9363 22.3432 19.893 22.5926C19.8071 23.0861 20.1376 23.5555 20.631 23.6414C21.1235 23.728 21.5926 23.3978 21.6794 22.9055C21.7173 22.6953 22.6353 17.8896 27.3627 16.5362C27.8441 16.3984 28.1228 15.8963 27.9848 15.4149C27.8708 15.0168 27.5078 14.7574 27.1134 14.7574Z" fill="#F9DE69"/>
<path d="M30.5 3.8147e-06C29.9991 3.8147e-06 29.5932 0.405916 29.5932 0.906902V6.10155C29.5932 6.60242 29.9991 7.00845 30.5 7.00845C31.0009 7.00845 31.4069 6.60254 31.4069 6.10155V0.906902C31.4069 0.405916 31.0009 3.8147e-06 30.5 3.8147e-06Z" fill="#F9DE69"/>
<path d="M16.267 3.94832C16.035 3.94832 15.8028 4.03684 15.6257 4.21388C15.2715 4.56809 15.2715 5.14223 15.6256 5.49643L19.2989 9.16966C19.6531 9.52386 20.2273 9.52374 20.5813 9.16978C20.9355 8.81557 20.9355 8.24143 20.5814 7.88722L16.9082 4.214C16.7311 4.03684 16.499 3.94832 16.267 3.94832Z" fill="#F9DE69"/>
<path d="M44.733 3.94832C44.5009 3.94832 44.2688 4.03684 44.0916 4.214L40.4185 7.88711C40.0644 8.24132 40.0644 8.81546 40.4186 9.16966C40.7726 9.52375 41.3469 9.52363 41.7011 9.16954L45.3743 5.49631C45.7284 5.14211 45.7284 4.56797 45.3742 4.21376C45.1971 4.03684 44.9649 3.94832 44.733 3.94832Z" fill="#F9DE69"/>
</svg>
