<svg width="315" height="269" viewBox="0 0 315 269" fill="none" xmlns="http://www.w3.org/2000/svg">
<path d="M43.1562 177.594H23.8125V189.188H42.5938V196.031H23.8125V212.156H43.1562V219H16.5312V170.75H43.1562V177.594ZM75.0625 189.875V199.219C73.4583 197.26 72.0208 195.917 70.75 195.188C69.5 194.438 68.0312 194.062 66.3438 194.062C63.6979 194.062 61.5 194.99 59.75 196.844C58 198.698 57.125 201.021 57.125 203.812C57.125 206.667 57.9688 209.01 59.6562 210.844C61.3646 212.677 63.5417 213.594 66.1875 213.594C67.875 213.594 69.3646 213.229 70.6562 212.5C71.9062 211.792 73.375 210.417 75.0625 208.375V217.656C72.2083 219.135 69.3542 219.875 66.5 219.875C61.7917 219.875 57.8542 218.354 54.6875 215.312C51.5208 212.25 49.9375 208.448 49.9375 203.906C49.9375 199.365 51.5417 195.531 54.75 192.406C57.9583 189.281 61.8958 187.719 66.5625 187.719C69.5625 187.719 72.3958 188.438 75.0625 189.875ZM80.4375 203.562C80.4375 199.167 82.0104 195.427 85.1562 192.344C88.3021 189.26 92.1354 187.719 96.6562 187.719C101.198 187.719 105.052 189.271 108.219 192.375C111.344 195.479 112.906 199.292 112.906 203.812C112.906 208.375 111.333 212.198 108.188 215.281C105.021 218.344 101.135 219.875 96.5312 219.875C91.9688 219.875 88.1458 218.312 85.0625 215.188C81.9792 212.104 80.4375 208.229 80.4375 203.562ZM87.625 203.688C87.625 206.729 88.4375 209.135 90.0625 210.906C91.7292 212.698 93.9271 213.594 96.6562 213.594C99.4062 213.594 101.604 212.708 103.25 210.938C104.896 209.167 105.719 206.802 105.719 203.844C105.719 200.885 104.896 198.521 103.25 196.75C101.583 194.958 99.3854 194.062 96.6562 194.062C93.9688 194.062 91.7917 194.958 90.125 196.75C88.4583 198.542 87.625 200.854 87.625 203.688ZM129 189.625H149.812V170.75H157.094V219H149.812V196.469H129V219H121.719V170.75H129V189.625ZM165.875 203.562C165.875 199.167 167.448 195.427 170.594 192.344C173.74 189.26 177.573 187.719 182.094 187.719C186.635 187.719 190.49 189.271 193.656 192.375C196.781 195.479 198.344 199.292 198.344 203.812C198.344 208.375 196.771 212.198 193.625 215.281C190.458 218.344 186.573 219.875 181.969 219.875C177.406 219.875 173.583 218.312 170.5 215.188C167.417 212.104 165.875 208.229 165.875 203.562ZM173.062 203.688C173.062 206.729 173.875 209.135 175.5 210.906C177.167 212.698 179.365 213.594 182.094 213.594C184.844 213.594 187.042 212.708 188.688 210.938C190.333 209.167 191.156 206.802 191.156 203.844C191.156 200.885 190.333 198.521 188.688 196.75C187.021 194.958 184.823 194.062 182.094 194.062C179.406 194.062 177.229 194.958 175.562 196.75C173.896 198.542 173.062 200.854 173.062 203.688ZM204.375 203.562C204.375 199.167 205.948 195.427 209.094 192.344C212.24 189.26 216.073 187.719 220.594 187.719C225.135 187.719 228.99 189.271 232.156 192.375C235.281 195.479 236.844 199.292 236.844 203.812C236.844 208.375 235.271 212.198 232.125 215.281C228.958 218.344 225.073 219.875 220.469 219.875C215.906 219.875 212.083 218.312 209 215.188C205.917 212.104 204.375 208.229 204.375 203.562ZM211.562 203.688C211.562 206.729 212.375 209.135 214 210.906C215.667 212.698 217.865 213.594 220.594 213.594C223.344 213.594 225.542 212.708 227.188 210.938C228.833 209.167 229.656 206.802 229.656 203.844C229.656 200.885 228.833 198.521 227.188 196.75C225.521 194.958 223.323 194.062 220.594 194.062C217.906 194.062 215.729 194.958 214.062 196.75C212.396 198.542 211.562 200.854 211.562 203.688ZM266.75 166.219H273.812V219H266.75V215.812C263.979 218.521 260.844 219.875 257.344 219.875C253.177 219.875 249.719 218.354 246.969 215.312C244.24 212.208 242.875 208.333 242.875 203.688C242.875 199.146 244.24 195.354 246.969 192.312C249.677 189.25 253.083 187.719 257.188 187.719C260.75 187.719 263.938 189.177 266.75 192.094V166.219ZM250.062 203.688C250.062 206.604 250.844 208.979 252.406 210.812C254.01 212.667 256.031 213.594 258.469 213.594C261.073 213.594 263.177 212.698 264.781 210.906C266.385 209.052 267.188 206.698 267.188 203.844C267.188 200.99 266.385 198.635 264.781 196.781C263.177 194.969 261.094 194.062 258.531 194.062C256.115 194.062 254.094 194.979 252.469 196.812C250.865 198.667 250.062 200.958 250.062 203.688ZM300.375 193.75L294.562 196.844C293.646 194.969 292.51 194.031 291.156 194.031C290.51 194.031 289.958 194.25 289.5 194.688C289.042 195.104 288.812 195.646 288.812 196.312C288.812 197.479 290.167 198.635 292.875 199.781C296.604 201.385 299.115 202.865 300.406 204.219C301.698 205.573 302.344 207.396 302.344 209.688C302.344 212.625 301.26 215.083 299.094 217.062C296.99 218.938 294.448 219.875 291.469 219.875C286.365 219.875 282.75 217.385 280.625 212.406L286.625 209.625C287.458 211.083 288.094 212.01 288.531 212.406C289.385 213.198 290.406 213.594 291.594 213.594C293.969 213.594 295.156 212.51 295.156 210.344C295.156 209.094 294.24 207.927 292.406 206.844C291.698 206.49 290.99 206.146 290.281 205.812C289.573 205.479 288.854 205.135 288.125 204.781C286.083 203.781 284.646 202.781 283.812 201.781C282.75 200.51 282.219 198.875 282.219 196.875C282.219 194.229 283.125 192.042 284.938 190.312C286.792 188.583 289.042 187.719 291.688 187.719C295.583 187.719 298.479 189.729 300.375 193.75Z" fill="#1BAF45"/>
<rect width="5.29217" height="80.7946" rx="2.64609" transform="matrix(4.78566e-08 1 1 -3.99252e-08 111.156 134.082)" fill="#1BAF45"/>
<rect width="6.43782" height="80.5589" rx="3.21891" transform="matrix(-1 0 0 1 191.951 58.8157)" fill="#1BAF45"/>
<path d="M118.734 2.29906C117.144 1.0356 114.712 1.22677 113.335 2.72347V2.72347C111.974 4.20261 112.163 6.39397 113.757 7.618L186.977 63.8282C188.068 64.6659 189.667 64.6663 190.787 63.8292V63.8292C192.235 62.7465 192.287 60.7444 190.896 59.6391L118.734 2.29906Z" fill="#1BAF45"/>
<path d="M41.4857 64.5235C39.8744 65.7539 37.4518 65.5163 36.1063 63.9961V63.9961C34.776 62.493 35.0065 60.3079 36.6213 59.1156L113.753 2.16251C114.851 1.35145 116.436 1.37604 117.537 2.22122V2.22122C118.977 3.32581 118.998 5.33767 117.582 6.41909L41.4857 64.5235Z" fill="#1BAF45"/>
<path d="M40.9158 74.3488C58.5671 75.1759 74.8274 82.2522 86.6989 94.2698C98.5704 106.287 104.611 121.784 103.703 137.909C103.654 138.779 102.844 139.446 101.891 139.401C100.939 139.357 100.208 138.617 100.257 137.747C101.118 122.464 95.3924 107.773 84.1381 96.3802C72.8838 84.9874 57.4714 78.28 40.7401 77.495C40.2649 77.4727 39.8435 77.2766 39.5476 76.9771C39.2517 76.6776 39.0814 76.2746 39.1058 75.8405C39.1534 74.9713 39.9643 74.303 40.9158 74.3488Z" fill="#1BAF45"/>
<path d="M89.3803 137.235C89.3314 138.106 88.5218 138.773 87.569 138.728C87.0938 138.706 86.6724 138.51 86.3765 138.21C86.0806 137.911 85.9102 137.508 85.9347 137.074C87.3073 112.689 66.7035 91.832 40.0055 90.5793C39.0527 90.5346 38.3222 89.7951 38.3712 88.9248C38.4201 88.0546 39.2297 87.3873 40.1825 87.432C68.7764 88.7737 90.8495 111.114 89.3803 137.235Z" fill="#1BAF45"/>
<path d="M65.4111 111.814C72.1438 118.629 75.5673 127.419 75.0542 136.563C75.0052 137.434 74.1956 138.101 73.2428 138.056C72.29 138.011 71.5595 137.272 71.6085 136.402C72.0743 128.098 68.9646 120.116 62.8491 113.925C56.7336 107.734 48.359 104.091 39.2684 103.663C38.7932 103.641 38.3718 103.445 38.0759 103.146C37.78 102.846 37.6096 102.443 37.634 102.009C37.683 101.139 38.4926 100.471 39.4454 100.516C49.4559 100.986 58.6784 104.998 65.4111 111.814Z" fill="#1BAF45"/>
<path d="M53.3594 121.746C57.5342 125.972 57.1663 132.514 52.538 136.328C47.9098 140.142 40.7479 139.806 36.573 135.58C32.397 131.353 32.7649 124.811 37.3932 120.997C42.0215 117.182 49.1834 117.519 53.3594 121.746ZM39.1363 133.468C42.0375 136.404 47.0123 136.637 50.2277 133.987C53.443 131.337 53.6986 126.792 50.7986 123.856C47.8987 120.921 42.9215 120.686 39.7062 123.336C36.4908 125.986 36.2352 130.531 39.1363 133.468Z" fill="#1BAF45"/>
<rect width="5.29217" height="80.7946" rx="2.64609" transform="matrix(4.78566e-08 1 1 -3.99252e-08 155.156 134.082)" fill="#1BAF45"/>
<rect width="6.43782" height="80.5589" rx="3.21891" transform="matrix(-1 0 0 1 235.951 58.8157)" fill="#1BAF45"/>
<path d="M162.734 2.29906C161.144 1.0356 158.712 1.22677 157.335 2.72347V2.72347C155.974 4.20261 156.163 6.39397 157.757 7.618L230.977 63.8282C232.068 64.6659 233.667 64.6663 234.787 63.8292V63.8292C236.235 62.7465 236.287 60.7444 234.896 59.6391L162.734 2.29906Z" fill="#1BAF45"/>
<path d="M141.356 23.1126C139.782 24.4005 137.328 24.1977 135.974 22.6679V22.6679C134.666 21.1902 134.893 19.042 136.48 17.8698L158.059 1.93625C159.293 1.02547 161.103 1.16274 162.197 2.24992V2.24992C163.354 3.40053 163.278 5.1798 162.027 6.20277L141.356 23.1126Z" fill="#1BAF45"/>
<rect width="5.29217" height="80.7946" rx="2.64609" transform="matrix(4.78566e-08 1 1 -3.99252e-08 201.156 134.082)" fill="#1BAF45"/>
<rect width="6.43782" height="80.5589" rx="3.21891" transform="matrix(-1 0 0 1 281.951 58.8157)" fill="#1BAF45"/>
<path d="M208.734 2.29906C207.144 1.0356 204.712 1.22677 203.335 2.72347V2.72347C201.974 4.20261 202.163 6.39397 203.757 7.618L276.977 63.8282C278.068 64.6659 279.667 64.6663 280.787 63.8292V63.8292C282.235 62.7465 282.287 60.7444 280.896 59.6391L208.734 2.29906Z" fill="#1BAF45"/>
<path d="M187.356 23.1126C185.782 24.4005 183.328 24.1977 181.974 22.6679V22.6679C180.666 21.1902 180.893 19.042 182.48 17.8698L204.059 1.93625C205.293 1.02547 207.103 1.16274 208.197 2.24992V2.24992C209.354 3.40053 209.278 5.1798 208.027 6.20277L187.356 23.1126Z" fill="#1BAF45"/>
</svg>
