<svg id="Layer_1" data-name="Layer 1" xmlns="http://www.w3.org/2000/svg" viewBox="0 0 430.4 497.68"><defs><style>.cls-1{fill:#f2b233;}.cls-2{fill:#dd981d;}.cls-3{fill:#00b337;}.cls-4{fill:#00861c;}.cls-5{fill:#fff;}.cls-6{fill:#d5d5d5;}</style></defs><title>money</title><path class="cls-1" d="M464,404.82c0,97.6-96,92-215.2,92s-215.2,4.8-215.2-92c0-97.6,96-260,215.2-260C368,145.62,464,308,464,404.82Z" transform="translate(-33.64 0)"/><path class="cls-2" d="M248.84,145.62C368,145.62,464,308,464,405.62s-96,92-215.2,92" transform="translate(-33.64 0)"/><path class="cls-1" d="M144,44.82C144-2.38,191.24,0,248.84,0s104.8-2.4,104.8,44.8-47.2,126.4-104.8,126.4S144,92,144,44.82Z" transform="translate(-33.64 0)"/><path class="cls-2" d="M248.84,0c57.6,0,104.8-2.4,104.8,44.8s-47.2,126.4-104.8,126.4" transform="translate(-33.64 0)"/><path class="cls-3" d="M340.84,154.42a14.34,14.34,0,0,1-14.4,14.4H171.24a14.34,14.34,0,0,1-14.4-14.4v-4a14.34,14.34,0,0,1,14.4-14.4h156a14.34,14.34,0,0,1,14.4,14.4v4Z" transform="translate(-33.64 0)"/><path class="cls-4" d="M168.84,136.82h158.4a14.34,14.34,0,0,1,14.4,14.4v4c0,8-8,14.4-16,14.4" transform="translate(-33.64 0)"/><circle class="cls-3" cx="215.2" cy="339.22" r="96"/><path class="cls-4" d="M180.84,271.22a96.17,96.17,0,0,1,136,136" transform="translate(-33.64 0)"/><path class="cls-5" d="M240.84,416.82v-20c-16-.8-24.8-4-32-8l4.8-21.6c8,4,18.4,8,30.4,8,10.4,0,17.6-4,17.6-11.2s-5.6-11.2-20-16c-20-6.4-32.8-16-32.8-33.6,0-16,7.2-28.8,31.2-32.8v-16.8h16v16c16,.8,21.6,3.2,27.2,6.4l-4.8,20.8a54,54,0,0,0-26.4-6.4c-12,0-16,4.8-16,10.4,0,6.4,6.4,9.6,22.4,16,21.6,8,30.4,17.6,30.4,34.4s-8.8,30.4-32.8,34.4v20Z" transform="translate(-33.64 0)"/><path class="cls-6" d="M248.84,264.82v36.8h4a54,54,0,0,1,26.4,6.4l4.8-20.8c-6.4-3.2-11.2-6.4-27.2-6.4v-16Z" transform="translate(-33.64 0)"/><path class="cls-6" d="M259.24,327.22c-4-1.6-8-3.2-10.4-4v27.2c8,4,12.8,8,12.8,13.6,0,6.4-4.8,9.6-12.8,11.2v41.6h8V396c24-4,32.8-17.6,32.8-34.4S280.84,335.22,259.24,327.22Z" transform="translate(-33.64 0)"/></svg>