<svg width="210" height="65" viewBox="0 0 210 65" fill="none" xmlns="http://www.w3.org/2000/svg">
<rect width="2.33847" height="34.6901" rx="1.16923" transform="matrix(4.65016e-08 1 1 -4.10886e-08 35.2745 60.2469)" fill="#1BAF45"/>
<rect width="2.76413" height="35.5966" rx="1.38206" transform="matrix(-1 0 0 1 69.9645 26.9888)" fill="#1BAF45"/>
<path d="M38.5345 2.02092C37.8484 1.45988 36.8013 1.54211 36.2099 2.20347V2.20347C35.6256 2.85703 35.7095 3.82744 36.3974 4.37095L67.8242 29.2C68.2954 29.5722 68.9845 29.5737 69.4658 29.2035V29.2035C70.0873 28.7253 70.1072 27.8395 69.5074 27.349L38.5345 2.02092Z" fill="#1BAF45"/>
<path d="M5.36832 29.505C4.67233 30.0519 3.62867 29.9496 3.05093 29.2779V29.2779C2.47977 28.6137 2.58213 27.6457 3.27957 27.1157L36.3836 1.95999C36.8585 1.59912 37.5422 1.60851 38.0156 1.98241V1.98241C38.6332 2.47023 38.6391 3.36044 38.0278 3.84079L5.36832 29.505Z" fill="#1BAF45"/>
<path d="M5.11601 33.8525C12.6948 34.218 19.6763 37.3448 24.7735 42.655C29.8707 47.9652 32.4642 54.8127 32.0743 61.9376C32.0533 62.3222 31.7057 62.617 31.2966 62.5972C30.8875 62.5775 30.5739 62.2507 30.5949 61.8662C30.9645 55.113 28.5062 48.6216 23.674 43.5875C18.8419 38.5533 12.2244 35.5896 5.04056 35.2427C4.83653 35.2328 4.65559 35.1462 4.52854 35.0139C4.4015 34.8815 4.32835 34.7034 4.33884 34.5116C4.3593 34.1276 4.70746 33.8323 5.11601 33.8525Z" fill="#1BAF45"/>
<path d="M25.9248 61.6402C25.9038 62.0247 25.5562 62.3195 25.1471 62.2998C24.9431 62.2899 24.7621 62.2033 24.6351 62.0709C24.508 61.9386 24.4349 61.7605 24.4454 61.5687C25.0347 50.794 16.1882 41.5777 4.72513 41.0242C4.31603 41.0045 4.00239 40.6777 4.02341 40.2932C4.04442 39.9086 4.39203 39.6138 4.80113 39.6335C17.0783 40.2264 26.5556 50.0978 25.9248 61.6402Z" fill="#1BAF45"/>
<path d="M15.6333 50.4071C18.5241 53.4187 19.994 57.3024 19.7737 61.3432C19.7526 61.7277 19.405 62.0225 18.9959 62.0028C18.5868 61.983 18.2732 61.6563 18.2942 61.2717C18.4942 57.6027 17.159 54.0756 14.5333 51.3401C11.9075 48.6046 8.31176 46.9947 4.40862 46.8057C4.20459 46.7959 4.02364 46.7092 3.8966 46.5769C3.76956 46.4445 3.69641 46.2665 3.70689 46.0747C3.72791 45.6901 4.07552 45.3953 4.48462 45.4151C8.78275 45.6226 12.7425 47.3955 15.6333 50.4071Z" fill="#1BAF45"/>
<path d="M10.4588 54.7958C12.2513 56.6633 12.0933 59.5538 10.1061 61.2392C8.11892 62.9247 5.04388 62.7762 3.25136 60.9087C1.45834 59.0408 1.6163 56.1502 3.60351 54.4648C5.59072 52.7794 8.66576 52.9279 10.4588 54.7958ZM4.35194 59.9753C5.59758 61.273 7.7336 61.3756 9.11414 60.2047C10.4947 59.0338 10.6044 57.0255 9.35929 55.7284C8.11416 54.4312 5.97714 54.3275 4.5966 55.4984C3.21606 56.6693 3.1063 58.6776 4.35194 59.9753Z" fill="#1BAF45"/>
<rect width="2.33847" height="34.6901" rx="1.16923" transform="matrix(4.65016e-08 1 1 -4.10886e-08 104.275 59.2469)" fill="#1BAF45"/>
<rect width="2.76413" height="35.5966" rx="1.38206" transform="matrix(-1 0 0 1 138.965 25.9888)" fill="#1BAF45"/>
<path d="M107.535 1.02092C106.849 0.459882 105.801 0.542113 105.21 1.20347V1.20347C104.626 1.85703 104.71 2.82744 105.398 3.37095L136.824 28.2C137.296 28.5722 137.985 28.5737 138.466 28.2035V28.2035C139.087 27.7253 139.107 26.8395 138.508 26.349L107.535 1.02092Z" fill="#1BAF45"/>
<path d="M74.3685 28.505C73.6725 29.0519 72.6289 28.9496 72.0511 28.2779V28.2779C71.48 27.6137 71.5823 26.6457 72.2798 26.1157L105.384 0.959989C105.859 0.599118 106.542 0.608509 107.016 0.982405V0.982405C107.633 1.47023 107.639 2.36044 107.028 2.84079L74.3685 28.505Z" fill="#1BAF45"/>
<path d="M74.1162 32.8525C81.695 33.218 88.6765 36.3448 93.7737 41.655C98.8709 46.9652 101.464 53.8127 101.075 60.9376C101.053 61.3222 100.706 61.617 100.297 61.5972C99.8877 61.5775 99.574 61.2507 99.5951 60.8662C99.9646 54.113 97.5064 47.6216 92.6742 42.5875C87.842 37.5533 81.2245 34.5896 74.0407 34.2427C73.8367 34.2328 73.6558 34.1462 73.5287 34.0139C73.4017 33.8815 73.3285 33.7034 73.339 33.5116C73.3595 33.1276 73.7076 32.8323 74.1162 32.8525Z" fill="#1BAF45"/>
<path d="M94.925 60.6402C94.904 61.0247 94.5564 61.3195 94.1473 61.2998C93.9433 61.2899 93.7623 61.2033 93.6353 61.0709C93.5082 60.9386 93.4351 60.7605 93.4456 60.5687C94.0349 49.794 85.1884 40.5777 73.7253 40.0242C73.3162 40.0045 73.0026 39.6777 73.0236 39.2932C73.0446 38.9086 73.3922 38.6138 73.8013 38.6335C86.0784 39.2264 95.5558 49.0978 94.925 60.6402Z" fill="#1BAF45"/>
<path d="M84.6335 49.4071C87.5243 52.4187 88.9942 56.3024 88.7739 60.3432C88.7529 60.7277 88.4053 61.0225 87.9962 61.0028C87.5871 60.983 87.2734 60.6563 87.2945 60.2717C87.4944 56.6027 86.1593 53.0756 83.5335 50.3401C80.9077 47.6046 77.312 45.9947 73.4089 45.8057C73.2048 45.7959 73.0239 45.7092 72.8968 45.5769C72.7698 45.4445 72.6967 45.2665 72.7071 45.0747C72.7282 44.6901 73.0758 44.3953 73.4849 44.4151C77.783 44.6226 81.7428 46.3955 84.6335 49.4071Z" fill="#1BAF45"/>
<path d="M79.459 53.7958C81.2515 55.6633 81.0935 58.5538 79.1063 60.2392C77.1191 61.9247 74.0441 61.7762 72.2515 59.9087C70.4585 58.0408 70.6165 55.1502 72.6037 53.4648C74.5909 51.7794 77.6659 51.9279 79.459 53.7958ZM73.3521 58.9753C74.5978 60.273 76.7338 60.3756 78.1143 59.2047C79.4949 58.0338 79.6046 56.0255 78.3595 54.7284C77.1143 53.4312 74.9773 53.3275 73.5968 54.4984C72.2162 55.6693 72.1065 57.6776 73.3521 58.9753Z" fill="#1BAF45"/>
<rect width="2.33847" height="34.6901" rx="1.16923" transform="matrix(4.65016e-08 1 1 -4.10886e-08 173.275 59.2469)" fill="#1BAF45"/>
<rect width="2.76413" height="35.5966" rx="1.38206" transform="matrix(-1 0 0 1 207.965 25.9888)" fill="#1BAF45"/>
<path d="M176.535 1.02092C175.849 0.459882 174.801 0.542113 174.21 1.20347V1.20347C173.626 1.85703 173.71 2.82744 174.398 3.37095L205.824 28.2C206.295 28.5722 206.985 28.5737 207.466 28.2035V28.2035C208.087 27.7253 208.107 26.8395 207.508 26.349L176.535 1.02092Z" fill="#1BAF45"/>
<path d="M143.368 28.505C142.672 29.0519 141.629 28.9496 141.051 28.2779V28.2779C140.48 27.6137 140.582 26.6457 141.28 26.1157L174.384 0.959989C174.859 0.599118 175.542 0.608509 176.016 0.982405V0.982405C176.633 1.47023 176.639 2.36044 176.028 2.84079L143.368 28.505Z" fill="#1BAF45"/>
<path d="M143.116 32.8525C150.695 33.218 157.676 36.3448 162.774 41.655C167.871 46.9652 170.464 53.8127 170.074 60.9376C170.053 61.3222 169.706 61.617 169.297 61.5972C168.888 61.5775 168.574 61.2507 168.595 60.8662C168.965 54.113 166.506 47.6216 161.674 42.5875C156.842 37.5533 150.224 34.5896 143.041 34.2427C142.837 34.2328 142.656 34.1462 142.529 34.0139C142.402 33.8815 142.328 33.7034 142.339 33.5116C142.359 33.1276 142.708 32.8323 143.116 32.8525Z" fill="#1BAF45"/>
<path d="M163.925 60.6402C163.904 61.0247 163.556 61.3195 163.147 61.2998C162.943 61.2899 162.762 61.2033 162.635 61.0709C162.508 60.9386 162.435 60.7605 162.446 60.5687C163.035 49.794 154.188 40.5777 142.725 40.0242C142.316 40.0045 142.003 39.6777 142.024 39.2932C142.045 38.9086 142.392 38.6138 142.801 38.6335C155.078 39.2264 164.556 49.0978 163.925 60.6402Z" fill="#1BAF45"/>
<path d="M153.633 49.4071C156.524 52.4187 157.994 56.3024 157.774 60.3432C157.753 60.7277 157.405 61.0225 156.996 61.0028C156.587 60.983 156.273 60.6563 156.294 60.2717C156.494 56.6027 155.159 53.0756 152.533 50.3401C149.908 47.6046 146.312 45.9947 142.409 45.8057C142.205 45.7959 142.024 45.7092 141.897 45.5769C141.77 45.4445 141.697 45.2665 141.707 45.0747C141.728 44.6901 142.076 44.3953 142.485 44.4151C146.783 44.6226 150.743 46.3955 153.633 49.4071Z" fill="#1BAF45"/>
<path d="M148.459 53.7958C150.251 55.6633 150.093 58.5538 148.106 60.2392C146.119 61.9247 143.044 61.7762 141.251 59.9087C139.458 58.0408 139.616 55.1502 141.604 53.4648C143.591 51.7794 146.666 51.9279 148.459 53.7958ZM142.352 58.9753C143.598 60.273 145.734 60.3756 147.114 59.2047C148.495 58.0338 148.605 56.0255 147.359 54.7284C146.114 53.4312 143.977 53.3275 142.597 54.4984C141.216 55.6693 141.106 57.6776 142.352 58.9753Z" fill="#1BAF45"/>
</svg>
